<svg width="112" height="129" viewBox="0 0 112 129" fill="none" xmlns="http://www.w3.org/2000/svg">
<path fill-rule="evenodd" clip-rule="evenodd" d="M70.3498 7.29436C78.0218 11.2975 84.2986 14.685 84.2972 14.8228C84.2938 15.1784 65.8842 24.5173 65.2308 24.4945C64.9335 24.4845 62.7773 23.4903 60.4394 22.2854L56.188 20.0951L51.5449 22.4857L46.9021 24.8767L39.2986 21.4545C27.8416 16.2976 26.6517 15.7325 26.8382 15.5426C27.0857 15.2907 31.1951 13.0794 42.3441 7.20002C47.7323 4.35845 52.962 1.57238 53.966 1.00862C54.9699 0.444855 55.9282 -0.00865322 56.0956 0.000125327C56.2631 0.00890388 62.6777 3.29134 70.3498 7.29436ZM103.999 24.7482L111.986 28.8804V47.0157C111.986 56.9902 111.881 65.1508 111.752 65.1508C111.624 65.1508 107.695 63.4446 103.02 61.3594L94.5219 57.5679V38.4521L90.369 40.7185C87.1688 42.4633 83.9667 44.2046 80.7627 45.9423L75.3094 48.8998L72.8829 47.8007C71.361 47.1103 69.8422 46.4131 68.3265 45.7093C67.1553 45.1629 64.2801 43.8658 61.9375 42.8262C59.5948 41.7862 57.4263 40.7403 57.1188 40.502C56.7103 40.1853 61.6912 37.4283 75.5416 30.304C85.9818 24.9337 94.8588 20.557 95.2682 20.5779C95.6776 20.5989 99.6065 22.4753 103.999 24.7482ZM25.3989 25.9086C30.8382 28.3682 35.2923 30.479 35.2974 30.5993C35.3021 30.7195 32.3375 32.4852 28.709 34.5224C25.0807 36.5601 22.112 38.3362 22.112 38.47C22.112 38.6034 25.3227 40.1617 29.2464 41.9335C33.1707 43.7048 43.0895 48.1917 51.2889 51.9044L78.7621 64.3435C85.673 67.4728 91.9024 70.2934 92.6051 70.6122C106.721 77.013 110.601 78.7891 111.134 79.094C111.669 79.4009 111.791 81.1841 111.886 90.1342L112 100.809L104.858 104.454L97.7164 108.099L87.8133 103.622C82.3665 101.16 77.9103 99.0166 77.9103 98.8588C77.9103 98.7014 78.9168 98.0445 80.1464 97.3984C81.3766 96.7524 83.9161 95.3222 85.7902 94.2197C87.6642 93.117 89.5329 92.1054 89.9431 91.9712C90.3532 91.8374 90.6829 91.6034 90.6762 91.4507C90.6693 91.2985 86.3085 89.2237 80.9859 86.8396C70.6479 82.2097 62.7365 78.6413 45.7517 70.9476C38.1567 67.508 30.5607 64.0705 22.9638 60.635C16.2872 57.6164 8.52445 54.0909 5.71316 52.8006L0.60186 50.4546L0.488224 39.6583L0.373998 28.8625L7.61761 25.1383C11.6018 23.0902 15.0072 21.4195 15.1858 21.4256C15.3642 21.4312 19.96 23.4484 25.3989 25.9086ZM2.54255 64.8574C3.60997 65.3796 5.71836 66.3575 7.22783 67.0301C8.73731 67.7028 11.6018 68.9974 13.5931 69.9076L17.2137 71.5617L17.2962 81.0398C17.3419 86.2526 17.5335 90.4946 17.7221 90.4671C18.1507 90.4033 24.9363 86.9174 31.7573 83.2563C36.6804 80.6143 36.9897 80.5092 38.1465 81.0831C38.8153 81.4151 42.8127 83.2108 47.0294 85.0744C51.2464 86.9377 54.8339 88.5839 55.0027 88.7329C55.171 88.8817 46.6841 93.4893 36.1424 98.9725L16.9763 108.942L8.78886 104.699C4.28628 102.366 0.457479 100.238 0.28116 99.9705C-0.115742 99.3687 -0.0817266 63.8252 0.315621 63.8733C0.472778 63.8922 1.47513 64.3351 2.54255 64.8574ZM47.8813 106.576C49.3015 107.188 50.7213 107.801 52.1407 108.414C56.427 110.271 55.587 110.333 60.6865 107.79C64.0829 106.097 65.5469 105.574 66.1823 105.828C66.659 106.018 70.7613 107.867 75.2992 109.936C79.8368 112.005 83.7069 113.698 83.8994 113.698C85.8033 113.698 82.6382 115.592 70.4247 121.763L56.1011 129L50.0745 126.02C46.7598 124.381 40.0743 121.098 35.2173 118.726C30.3607 116.352 26.4471 114.349 26.5204 114.274C26.5942 114.198 30.6636 112.105 35.564 109.622L44.4738 105.108L47.8813 106.576Z" fill="black"/>
</svg>
